<svg width="30" height="30" viewBox="0 0 30 30" fill="none" xmlns="http://www.w3.org/2000/svg">
<path d="M15.004 25.9994C16.5509 25.9982 18.0806 25.6686 19.4919 25.0339L22.4955 25.8932C23.1269 26.0737 23.8024 26.0221 24.3989 25.7477C24.9953 25.4734 25.4745 24.9946 25.7488 24.3973C26.0231 23.8001 26.0746 23.1249 25.8942 22.4933L25.0352 19.4886C26.0034 17.3224 26.2452 14.9003 25.7243 12.5849C25.2033 10.2696 23.9479 8.18507 22.1457 6.64192C20.343 5.09938 18.0898 4.18111 15.7225 4.02397C13.3553 3.86744 11.0009 4.48065 9.01095 5.77213C7.02104 7.06362 5.50176 8.96524 4.68015 11.1916C3.85853 13.4179 3.77938 15.8505 4.45312 18.1259C5.12746 20.4014 6.51911 22.3975 8.42067 23.8167C10.3222 25.2358 12.6312 26.0013 15.004 25.9994Z" fill="#171717"/>
<path class="background" d="M20.806 8.20201C19.1859 6.84312 17.1323 6.09643 15.0098 6.09378C12.2031 6.08715 9.55488 7.38045 7.84983 9.58872C6.1441 11.797 5.57821 14.6672 6.31869 17.3485C7.05917 20.0298 9.02176 22.2149 11.6245 23.2558C14.2272 24.2966 17.1711 24.0734 19.5839 22.6529L24 23.9031L22.7378 19.5289C23.8181 17.7189 24.2167 15.5888 23.8629 13.5157C23.509 11.4425 22.4261 9.56023 20.806 8.20201Z" fill="white"/>
<circle cx="11" cy="15" r="1" fill="#171717"/>
<circle cx="15" cy="15" r="1" fill="#171717"/>
<circle cx="19" cy="15" r="1" fill="#171717"/>
</svg>
