<svg width="30" height="30" viewBox="0 0 30 30" fill="none" xmlns="http://www.w3.org/2000/svg">
<path d="M9.0002 17.1259C9.04036 17.6608 8.64008 18.1308 8.08004 18.1829C7.39996 18.2351 6.8002 18.7439 6.64 19.4228L6.0398 22.059C6.01317 22.1765 5.99964 22.294 5.99964 22.4115C5.99964 22.8422 6.18647 23.2596 6.4798 23.5599C6.78667 23.8603 7.18651 24.0427 7.66667 24.0427H22.3333C22.8135 24.0427 23.2133 23.8599 23.5202 23.5599C23.8135 23.2596 24.0004 22.8422 24.0004 22.4115C24.0004 22.294 23.9868 22.1765 23.9602 22.0462L23.36 19.4361C23.1998 18.7443 22.6 18.2355 21.92 18.1834C21.3735 18.1312 20.9601 17.6612 20.9998 17.1263C21.0531 16.5914 21.5332 16.1868 22.0797 16.2257C23.6664 16.356 24.9598 17.4916 25.3064 19.0054L25.9066 21.6287C25.9734 21.8894 26 22.1504 26 22.4115C26 24.3431 24.4002 26.0004 22.3333 26.0004H7.66667C5.5998 26.0004 4 24.3431 4 22.4115C4 22.1504 4.02663 21.8894 4.09341 21.6283L4.69361 18.9922C5.0402 17.4912 6.33357 16.356 7.92028 16.2252C8.46679 16.1864 8.94651 16.591 9.0002 17.1259Z" fill="#171717"/>
<path d="M8.44722 13.424V13.4102C7.91255 12.4611 7.66797 11.4712 7.66797 10.5083C7.66797 8.79966 8.43171 7.1727 9.73062 5.97944C11.029 4.77287 12.8926 4 15.0013 4C17.11 4 18.9586 4.77286 20.257 5.97988C21.5554 7.17314 22.3346 8.80011 22.3346 10.5088C22.3346 11.4716 22.0751 12.4749 21.5554 13.4107L17.2165 21.126C16.7734 21.9126 15.8566 22.3463 15.0013 22.333C14.1305 22.3468 13.2292 21.9126 12.7861 21.126L8.44722 13.424Z" fill="#171717"/>
<path class="background" d="M16.6667 9.25012C16.9614 9.25012 17.244 9.13152 17.4524 8.92058C17.6607 8.70965 17.7779 8.4235 17.7779 8.12506C17.7779 7.82662 17.6607 7.54047 17.4524 7.32954C17.244 7.11861 16.9614 7 16.6667 7C16.3719 7 16.0893 7.11861 15.881 7.32954C15.6726 7.54047 15.5555 7.82662 15.5555 8.12506C15.5555 8.4235 15.6726 8.70965 15.881 8.92058C16.0893 9.13152 16.3719 9.25012 16.6667 9.25012ZM12.2221 10.3749C12.2221 10.0765 12.1052 9.79035 11.8967 9.57942C11.6883 9.36848 11.4057 9.24988 11.111 9.24988C10.8162 9.24988 10.5336 9.36824 10.3252 9.57942C10.1171 9.79035 10 10.0765 10 10.3749C10 10.6734 10.1171 10.9595 10.3255 11.1705C10.5338 11.3814 10.8164 11.5 11.1112 11.5C11.406 11.5 11.6886 11.3814 11.8969 11.1705C12.1052 10.9595 12.2224 10.6734 12.2224 10.3749H12.2221ZM18.8888 9.25012C18.594 9.25012 18.3114 9.36848 18.1031 9.57966C17.8948 9.79059 17.7776 10.0767 17.7776 10.3752C17.7776 10.6736 17.8945 10.9598 18.1031 11.1707C18.3114 11.3816 18.594 11.5002 18.8888 11.5002C19.1836 11.5002 19.4662 11.3816 19.6745 11.1707C19.8829 10.9598 20 10.6736 20 10.3752C20 10.0767 19.8829 9.79059 19.6745 9.57966C19.4662 9.36873 19.1836 9.25012 18.8888 9.25012ZM13.3333 9.25012C13.6281 9.25012 13.9107 9.13152 14.119 8.92058C14.3274 8.70965 14.4445 8.4235 14.4445 8.12506C14.4445 7.82662 14.3274 7.54047 14.119 7.32954C13.9107 7.11861 13.6281 7 13.3333 7C13.0386 7 12.756 7.11861 12.5476 7.32954C12.3393 7.54047 12.2221 7.82662 12.2221 8.12506C12.2221 8.4235 12.3393 8.70965 12.5476 8.92058C12.756 9.13152 13.0386 9.25012 13.3333 9.25012ZM15 9.81253C14.5498 9.81253 14.1102 9.95163 13.7398 10.2105C13.3695 10.4697 13.0857 10.8368 12.9262 11.263C12.8367 11.5014 12.671 11.7025 12.4555 11.8346C12.084 12.0622 11.7867 12.3951 11.601 12.7924C11.4152 13.1896 11.3488 13.6334 11.4105 14.0688C11.4862 14.6049 11.7507 15.0953 12.1548 15.4501C12.559 15.8047 13.076 16.0002 13.611 16C13.9376 16 14.26 15.9248 14.554 15.7801C14.836 15.6432 15.1638 15.6432 15.4457 15.7801C15.7395 15.9248 16.0619 15.9998 16.3888 15.9998C16.9236 15.9998 17.4407 15.8047 17.8448 15.4499C18.249 15.0953 18.5133 14.6049 18.5893 14.0688C18.651 13.6337 18.5848 13.1899 18.3988 12.7924C18.2131 12.3951 17.9157 12.0619 17.5443 11.8344C17.3288 11.7025 17.1633 11.5012 17.0738 11.263C16.9143 10.8368 16.6307 10.4697 16.2602 10.2105C15.89 9.95138 15.4502 9.81253 15 9.81229V9.81253Z" fill="white"/>
</svg>
