<svg width="30" height="30" viewBox="0 0 30 30" fill="none" xmlns="http://www.w3.org/2000/svg">
<path d="M16.6989 12.7685C16.9925 12.7685 17.274 12.6508 17.4815 12.4414C17.689 12.232 17.8057 11.948 17.8057 11.6518C17.8057 11.3556 17.689 11.0716 17.4815 10.8622C17.274 10.6529 16.9925 10.5352 16.6989 10.5352C16.4053 10.5352 16.1238 10.6529 15.9163 10.8622C15.7088 11.0716 15.5921 11.3556 15.5921 11.6518C15.5921 11.948 15.7088 12.232 15.9163 12.4414C16.1238 12.6508 16.4053 12.7685 16.6989 12.7685ZM12.272 13.8849C12.272 13.5887 12.1555 13.3047 11.9478 13.0953C11.7403 12.886 11.4588 12.7682 11.1652 12.7682C10.8716 12.7682 10.5901 12.8857 10.3825 13.0953C10.1753 13.3047 10.0586 13.5887 10.0586 13.8849C10.0586 14.1811 10.1753 14.4651 10.3828 14.6745C10.5903 14.8838 10.8718 15.0016 11.1654 15.0016C11.459 15.0016 11.7405 14.8838 11.948 14.6745C12.1555 14.4651 12.2722 14.1811 12.2722 13.8849H12.272ZM18.9123 12.7685C18.6187 12.7685 18.3372 12.886 18.1297 13.0956C17.9222 13.3049 17.8055 13.5889 17.8055 13.8851C17.8055 14.1814 17.9219 14.4654 18.1297 14.6747C18.3372 14.8841 18.6187 15.0018 18.9123 15.0018C19.2059 15.0018 19.4874 14.8841 19.6949 14.6747C19.9024 14.4654 20.0191 14.1814 20.0191 13.8851C20.0191 13.5889 19.9024 13.3049 19.6949 13.0956C19.4874 12.8862 19.2059 12.7685 18.9123 12.7685ZM13.3788 12.7685C13.6723 12.7685 13.9539 12.6508 14.1614 12.4414C14.3689 12.232 14.4855 11.948 14.4855 11.6518C14.4855 11.3556 14.3689 11.0716 14.1614 10.8622C13.9539 10.6529 13.6723 10.5352 13.3788 10.5352C13.0852 10.5352 12.8037 10.6529 12.5961 10.8622C12.3886 11.0716 12.272 11.3556 12.272 11.6518C12.272 11.948 12.3886 12.232 12.5961 12.4414C12.8037 12.6508 13.0852 12.7685 13.3788 12.7685ZM15.0388 13.3267C14.5904 13.3267 14.1526 13.4647 13.7836 13.7217C13.4148 13.9789 13.1321 14.3433 12.9732 14.7664C12.884 15.003 12.719 15.2025 12.5044 15.3337C12.1344 15.5595 11.8382 15.89 11.6532 16.2843C11.4682 16.6786 11.4021 17.1191 11.4635 17.5512C11.5389 18.0833 11.8024 18.57 12.2048 18.9222C12.6075 19.2742 13.1224 19.4682 13.6553 19.468C13.9806 19.468 14.3018 19.3933 14.5946 19.2498C14.8754 19.1138 15.202 19.1138 15.4828 19.2498C15.7754 19.3933 16.0965 19.4677 16.4222 19.4677C16.9548 19.4677 17.4699 19.2742 17.8723 18.922C18.275 18.57 18.5383 18.0833 18.6139 17.5512C18.6754 17.1193 18.6094 16.6788 18.4242 16.2843C18.2392 15.89 17.943 15.5593 17.5731 15.3334C17.3584 15.2025 17.1936 15.0028 17.1044 14.7664C16.9455 14.3433 16.6631 13.9789 16.2941 13.7217C15.9253 13.4645 15.4873 13.3267 15.0388 13.3264V13.3267Z" fill="#171717"/>
<path d="M6.99967 7.99994C6.99967 7.44752 7.44752 6.99967 7.99994 6.99967H10.4997C11.0522 6.99967 11.4996 6.55225 11.4996 5.99984C11.4996 5.44742 11.0522 5 10.4997 5H7.99994C6.34312 5 5 6.34312 5 7.99994V10.4997C5 11.0522 5.44785 11.5 5.99984 11.5C6.55183 11.5 6.99967 11.0526 6.99967 10.5002V8.00037V7.99994Z" fill="#171717"/>
<path d="M19.5037 5C18.9513 5 18.5039 5.44742 18.5039 5.99984C18.5039 6.55225 18.9518 6.99967 19.5037 6.99967H22.0035C22.556 6.99967 23.0038 7.44752 23.0038 7.99994V10.4997C23.0038 11.0522 23.4517 11.4996 24.0037 11.4996C24.5556 11.4996 25.0035 11.0517 25.0035 10.4997V7.99994C25.0039 6.34312 23.6608 5 22.004 5H19.5042H19.5037Z" fill="#171717"/>
<path d="M6.99967 19.5037C6.99967 18.9513 6.55225 18.5039 5.99984 18.5039C5.44742 18.5039 5 18.9518 5 19.5037V22.0035C5 23.6604 6.34312 25.0035 7.99994 25.0035H10.4997C11.0522 25.0035 11.4996 24.5556 11.4996 24.0037C11.4996 23.4517 11.0517 23.0038 10.4997 23.0038H7.99994C7.44752 23.0038 6.99967 22.556 6.99967 22.0035V19.5037Z" fill="#171717"/>
<path d="M24.9999 19.5037C24.9999 18.9513 24.552 18.5039 24 18.5039C23.4481 18.5039 23.0002 18.9518 23.0002 19.5037V22.0035C23.0002 22.556 22.5524 23.0038 21.9999 23.0038H20.0003C19.4478 23.0038 19 23.4517 19 24.0037C19 24.5556 19.4478 25.0035 20.0003 25.0035H21.9999C23.6568 25.0035 24.9999 23.6604 24.9999 22.0035V19.5037Z" fill="#171717"/>
</svg>
