<svg width="265" height="40" viewBox="0 0 289 52" fill="none" xmlns="http://www.w3.org/2000/svg">
<path d="M287.573 19.0228L287.573 19.0227H287.574C288.702 17.2751 289.187 15.2861 288.935 13.4141C288.627 11.1921 287.304 9.32007 285.28 8.27172C284.199 7.72293 282.95 7.423 281.682 7.423C281.16 7.423 280.647 7.46479 280.144 7.55579C280.125 3.97707 277.812 0.940643 274.214 0.174571C273.674 0.0585 273.124 0 272.564 0C270.243 0 268.09 0.9815 266.514 2.62136C264.929 0.9815 262.766 0 260.445 0C259.885 0 259.336 0.0575714 258.795 0.174571C256.53 0.657429 254.656 2.11343 253.659 4.17764C253.146 5.21764 252.885 6.37464 252.876 7.56414C252.372 7.47314 251.85 7.423 251.337 7.423C250.06 7.423 248.811 7.72293 247.729 8.27172C243.842 10.2765 242.844 14.9946 245.446 19.0227L245.474 19.0729C248.13 23.1168 249.706 27.6436 249.706 32.3282V52L283.285 52V32.3449C283.285 27.6603 284.86 23.1326 287.526 19.097C287.536 19.0729 287.555 19.0478 287.573 19.0228Z" fill="#222222"/>
<path d="M274.528 23.2413C274.231 22.8631 273.978 22.5414 273.813 22.275C271.435 18.5975 269.728 16.3535 265.997 16.3535C262.266 16.3535 260.548 18.5975 258.17 22.275C258.005 22.5414 257.752 22.8643 257.466 23.2413C256.002 25.1083 253.272 28.5849 255.231 32.285C256.398 34.5076 258.534 34.9963 260.725 34.9963C261.682 34.9963 262.652 34.9072 263.543 34.8191C264.425 34.7299 265.25 34.6521 265.998 34.6521C266.746 34.6521 267.572 34.7299 268.442 34.8191C271.404 35.1081 275.08 35.4637 276.764 32.2861C278.712 28.586 275.994 25.1083 274.53 23.2424L274.528 23.2413ZM272.525 4.09836C270.202 3.54301 267.747 5.52062 267.043 8.52091C266.911 9.06498 266.856 9.60905 266.856 10.143C266.856 12.4874 268.067 14.4978 269.961 14.9538C270.225 15.0204 270.49 15.0543 270.743 15.0543C272.802 15.0543 274.805 13.1873 275.432 10.5324C276.147 7.54339 274.837 4.65485 272.525 4.09836ZM256.376 15.052C255.661 13.7968 254.604 12.8182 253.415 12.3079C252.16 11.7639 250.905 11.7966 249.882 12.3971C247.823 13.597 247.383 16.7406 248.913 19.4079C250.025 21.3743 251.907 22.5301 253.636 22.5301C254.264 22.5301 254.869 22.3857 255.409 22.064C256.432 21.4634 257.093 20.3866 257.259 19.0196C257.413 17.7306 257.104 16.3196 256.377 15.0531L256.376 15.052ZM264.94 8.51865C264.236 5.51949 261.781 3.53059 259.458 4.09611C257.146 4.65146 255.846 7.54 256.552 10.529C257.179 13.1839 259.182 15.0509 261.242 15.0509C261.505 15.0509 261.769 15.017 262.034 14.9504C263.191 14.6727 264.126 13.8284 264.665 12.5619C265.182 11.3632 265.281 9.92962 264.94 8.51865ZM283.962 15.4505C283.797 14.0846 283.137 12.9954 282.112 12.3949C281.078 11.7944 279.823 11.7616 278.567 12.3057C277.378 12.817 276.332 13.7945 275.605 15.0497C275.01 16.1051 274.692 17.261 274.692 18.3717C274.692 18.5828 274.703 18.8052 274.725 19.0163C274.891 20.3821 275.551 21.4601 276.575 22.0606C277.125 22.3834 277.732 22.538 278.369 22.538C278.931 22.538 279.526 22.4161 280.119 22.1599C281.308 21.6486 282.354 20.671 283.081 19.4046C283.797 18.1494 284.116 16.7384 283.962 15.4493V15.4505Z" fill="#FF9900"/>
<path d="M24.9876 38.6418C25.4082 38.0041 25.3661 37.1113 24.3145 36.5587C21.6644 35.1982 19.5191 33.3282 17.9207 30.4793C21.6224 28.6512 23.8097 25.5052 23.8097 21.2539C23.8097 13.1764 16.3643 9.01005 2.94556 10.2004C1.2209 10.3705 -0.0410436 11.1782 0.00102126 13.1764L0.463735 41.1076C0.463735 41.9578 0.884383 42.383 1.72568 42.383H5.84804C6.68934 42.383 7.10998 41.9578 7.10998 41.1076L7.27824 32.0948C8.83246 32.2303 10.3959 32.216 11.9474 32.0522C13.5038 36.8563 16.4905 40.5124 20.5707 42.5955C21.2858 42.9782 22.043 42.9782 22.6319 42.0854L24.9876 38.6418ZM7.19412 17.2576C13.0411 16.6199 16.7849 18.0654 16.7849 21.764C16.7849 25.4627 12.9149 26.7806 7.10998 26.2274L7.19412 17.2576ZM45.7676 36.1335C45.389 35.5809 44.716 35.4958 43.8753 35.9635C42.3189 36.8988 40.5522 37.4089 38.2807 37.4514C35.2941 37.494 32.9385 36.006 32.476 33.5827L45.432 33.2426C47.8297 33.2001 48.9654 31.4146 48.9234 29.3314C48.7551 22.8694 44.3804 18.1504 37.1452 18.1504C30.3728 18.1504 25.2408 23.0819 25.2408 30.6493C25.2408 38.2167 30.4981 42.9355 37.7753 42.9355C41.6032 42.9355 44.5057 42.0002 46.9454 39.9596C47.6185 39.3644 47.5764 38.7267 47.2395 38.2165L45.7676 36.1335ZM32.2648 28.3111C32.5172 26.0154 34.368 24.1448 37.3546 24.0172C40.1309 23.8897 42.4024 25.5902 42.7389 27.886L32.2648 28.3111ZM69.0715 21.1265C69.3239 20.4888 69.0715 19.9786 68.3985 19.681C66.127 18.6602 62.7618 18.108 60.4482 18.1505C55.0219 18.193 49.9741 20.8289 49.7638 25.5904C49.5955 29.0764 52.078 30.947 55.2322 32.0524C57.0831 32.6901 59.9014 33.2853 62.0888 33.6676C63.8976 33.9648 64.4865 34.773 64.3182 35.7933C64.15 36.8561 62.8459 37.5788 60.3221 37.6639C57.5458 37.7489 54.6854 36.5585 52.8766 35.5382C52.0353 35.0706 51.3622 35.1981 51.0257 35.7508L49.5955 37.9191C49.259 38.4292 49.3014 39.0244 50.0162 39.6196C52.4135 41.5752 56.5362 42.8931 59.9014 42.9355C65.6222 43.0205 70.8383 40.4272 71.1327 36.0481C71.3851 32.1794 68.4406 29.6711 63.8134 28.8209C61.9098 28.4977 60.0274 28.0576 58.1767 27.5028C57.3354 27.2477 56.7465 26.8226 56.8307 26.0574C56.9569 25.0796 58.3871 24.3568 60.4482 24.2718C62.4188 24.2004 64.3821 24.5482 66.2111 25.2926C66.8421 25.5477 67.4731 25.3777 67.6834 24.7825L69.0715 21.1265ZM92.2072 35.581C91.7866 35.0708 91.0715 35.0283 90.3149 35.5385C88.5903 36.7288 87.3283 37.4509 85.0148 37.4509C81.8599 37.4509 78.705 35.3678 78.663 31.159C78.6209 27.7154 81.1869 25.1646 84.5521 25.1646C86.3608 25.1646 88.3379 26.2699 89.3054 27.6729C89.6419 28.183 90.1467 28.3531 90.6095 28.0555L94.816 26.2274C95.2787 25.9302 95.3208 25.6322 95.0263 24.9945C93.3017 21.4659 89.6841 18.1071 83.5426 18.1499C76.7702 18.1924 71.6803 23.3365 71.6383 30.6488C71.5962 37.9611 76.7274 42.9355 84.299 42.9355C88.3373 42.9355 91.3239 41.4901 93.5954 39.3219C94.2263 38.6842 94.1422 38.0465 93.8057 37.5788L92.2072 35.581ZM116.268 42.3831C117.11 42.3831 117.53 41.958 117.53 41.1077L117.951 20.0636C117.993 19.2134 117.572 18.7882 116.731 18.7882H111.599C110.758 18.7882 110.379 19.2134 110.379 20.0636L110.673 32.6901C110.681 33.1722 110.592 33.6509 110.413 34.0978C110.233 34.5447 109.967 34.9507 109.63 35.2917C109.293 35.6326 108.891 35.9017 108.449 36.0828C108.006 36.264 107.533 36.3535 107.056 36.3462C104.868 36.3462 103.48 35.2409 103.228 33.0727C102.807 29.3315 103.06 24.9101 103.522 20.0636C103.606 19.2134 103.185 18.7882 102.344 18.7882H97.5074C96.6661 18.7882 96.3296 19.2134 96.2454 20.0636C95.8248 25.2928 95.6565 31.2871 96.582 35.9636C97.3807 39.9597 100.368 42.9782 104.574 42.9782C107.813 42.9782 109.874 41.6177 110.842 39.7897L110.884 41.1077C110.884 41.958 111.305 42.3831 112.146 42.3831H116.268ZM139.783 36.1337C139.404 35.581 138.731 35.496 137.89 35.9636C136.334 36.8989 134.567 37.4091 132.296 37.4516C129.309 37.4941 126.953 36.0061 126.491 33.5829L139.446 33.2426C141.843 33.2001 142.979 31.4146 142.937 29.3314C142.769 22.8694 138.394 18.1504 131.159 18.1504C124.386 18.1504 119.254 23.0819 119.254 30.6493C119.254 38.2167 124.513 42.9355 131.79 42.9355C135.618 42.9355 138.521 42.0002 140.96 39.9596C141.633 39.3644 141.591 38.7267 141.254 38.2165L139.783 36.1337ZM126.28 28.3111C126.532 26.0154 128.383 24.1448 131.37 24.0172C134.146 23.8897 136.417 25.5902 136.754 27.886L126.28 28.3111ZM159.048 17.2576C164.475 16.6199 168.218 18.4905 168.218 22.1892C168.218 25.8878 164.348 27.5033 158.964 27.0782L159.048 17.2576ZM157.702 42.383C158.544 42.383 158.964 41.9578 158.964 41.1076L159.132 32.945C169.48 33.4552 175.243 29.0338 175.243 22.1035C175.243 13.4733 168.218 9.09443 154.8 10.1998C153.075 10.3273 151.813 11.1776 151.855 13.1757L152.318 41.1069C152.318 41.9572 152.739 42.3823 153.58 42.3823L157.702 42.383ZM194.803 36.1335C194.425 35.5809 193.752 35.4958 192.911 35.9635C191.354 36.8988 189.587 37.4089 187.316 37.4514C184.329 37.494 181.974 36.006 181.511 33.5827L194.467 33.2426C196.865 33.2001 198.001 31.4146 197.959 29.3314C197.79 22.8694 193.416 18.1504 186.18 18.1504C179.408 18.1504 174.276 23.0819 174.276 30.6493C174.276 38.2167 179.534 42.9355 186.811 42.9355C190.639 42.9355 193.542 42.0002 195.981 39.9596C196.654 39.3644 196.612 38.7267 196.275 38.2165L194.803 36.1335ZM181.301 28.3111C181.553 26.0154 183.404 24.1448 186.39 24.0172C189.167 23.8897 191.438 25.5902 191.775 27.886L181.301 28.3111ZM207.97 42.3831C208.811 42.3831 209.232 41.958 209.232 41.1077L209.484 25.2503L214.027 25.1652C214.784 25.1227 215.289 24.6551 215.289 23.8898V20.021C215.289 19.2558 214.784 18.7456 214.027 18.7456L209.568 18.7031L209.652 13.8566C209.61 13.0063 209.274 12.5812 208.432 12.5812H203.385C202.543 12.5812 202.123 13.0063 202.165 13.8566L202.207 18.6181L197.79 18.5755C197.033 18.5755 196.528 19.0857 196.528 19.8509V24.1873C196.528 24.9525 197.033 25.4627 197.79 25.4627L202.333 25.3777L202.585 41.1076C202.585 41.9578 203.006 42.383 203.847 42.383L207.97 42.3831ZM233.924 21.1265C234.176 20.4888 233.924 19.9786 233.251 19.681C230.979 18.6602 227.614 18.108 225.3 18.1505C219.874 18.193 214.826 20.8289 214.616 25.5904C214.448 29.0764 216.93 30.947 220.084 32.0524C221.935 32.6901 224.754 33.2853 226.941 33.6676C228.75 33.9648 229.339 34.773 229.17 35.7933C229.002 36.8561 227.698 37.5788 225.174 37.6639C222.398 37.7489 219.538 36.5585 217.729 35.5382C216.888 35.0706 216.214 35.1981 215.878 35.7508L214.448 37.919C214.111 38.4291 214.154 39.0243 214.868 39.6195C217.266 41.5751 221.388 42.893 224.754 42.9355C230.474 43.0205 235.691 40.4272 235.985 36.0481C236.237 32.1794 233.293 29.6711 228.666 28.8209C226.762 28.4977 224.88 28.0576 223.029 27.5028C222.188 27.2477 221.599 26.8226 221.683 26.0574C221.809 25.0796 223.239 24.3568 225.3 24.2718C227.271 24.2004 229.234 24.5482 231.063 25.2926C231.694 25.5477 232.325 25.3777 232.536 24.7825L233.924 21.1265Z" fill="#222222"/>
</svg>
