<svg width="45" height="52" viewBox="0 0 45 52" fill="none" xmlns="http://www.w3.org/2000/svg">
<path d="M43.5732 19.0228L43.5733 19.0227H43.5743C44.702 17.2751 45.1867 15.2861 44.935 13.4141C44.6271 11.1921 43.3038 9.32007 41.2805 8.27172C40.1986 7.72293 38.9502 7.423 37.6821 7.423C37.1599 7.423 36.647 7.46479 36.1435 7.55579C36.1248 3.97707 33.8123 0.940643 30.2139 0.174571C29.674 0.0585 29.1237 0 28.564 0C26.2432 0 24.0898 0.9815 22.5137 2.62136C20.9294 0.9815 18.7656 0 16.4447 0C15.885 0 15.3358 0.0575714 14.7948 0.174571C12.5301 0.657429 10.6555 2.11343 9.65894 4.17764C9.14608 5.21764 8.88497 6.37464 8.87561 7.56414C8.37211 7.47314 7.84989 7.423 7.33703 7.423C6.05956 7.423 4.81121 7.72293 3.72932 8.27172C-0.158224 10.2765 -1.15586 14.9946 1.44589 19.0227L1.47398 19.0729C4.12983 23.1168 5.70586 27.6436 5.70586 32.3282L5.70586 52L39.2852 52V32.3449C39.2852 27.6603 40.8602 23.1326 43.5264 19.097C43.5358 19.0729 43.5545 19.0478 43.5732 19.0228Z" fill="#222222"/>
<path d="M30.5284 23.2413C30.2309 22.8631 29.9782 22.5414 29.8126 22.275C27.4349 18.5975 25.7281 16.3535 21.9971 16.3535C18.266 16.3535 16.5481 18.5975 14.1703 22.275C14.0048 22.5414 13.752 22.8643 13.4657 23.2413C12.0017 25.1083 9.27159 28.5849 11.2311 32.285C12.3976 34.5076 14.5338 34.9963 16.7248 34.9963C17.6822 34.9963 18.6518 34.9072 19.5432 34.8191C20.4246 34.7299 21.25 34.6521 21.9982 34.6521C22.7464 34.6521 23.5718 34.7299 24.4419 34.8191C27.4035 35.1081 31.0798 35.4637 32.7642 32.2861C34.7125 28.586 31.9936 25.1083 30.5295 23.2424L30.5284 23.2413ZM28.5253 4.09836C26.2023 3.54301 23.7474 5.52062 23.0428 8.52091C22.9108 9.06498 22.856 9.60905 22.856 10.143C22.856 12.4874 24.0673 14.4978 25.9608 14.9538C26.2247 15.0204 26.4898 15.0543 26.7426 15.0543C28.8016 15.0543 30.8047 13.1873 31.4321 10.5324C32.1468 7.54339 30.8371 4.65485 28.5253 4.09836ZM12.3763 15.052C11.6606 13.7968 10.6036 12.8182 9.41475 12.3079C8.15987 11.7639 6.905 11.7966 5.88163 12.3971C3.82261 13.597 3.38307 16.7406 4.91307 19.4079C6.02479 21.3743 7.90711 22.5301 9.6362 22.5301C10.2636 22.5301 10.8687 22.3857 11.4089 22.064C12.4323 21.4634 13.0933 20.3866 13.2588 19.0196C13.4131 17.7306 13.1044 16.3196 12.3775 15.0531L12.3763 15.052ZM20.9401 8.51865C20.2355 5.51949 17.7806 3.53059 15.4576 4.09611C13.1458 4.65146 11.8462 7.54 12.5519 10.529C13.1794 13.1839 15.1825 15.0509 17.2415 15.0509C17.5055 15.0509 17.7694 15.017 18.0345 14.9504C19.1909 14.6727 20.1259 13.8284 20.665 12.5619C21.1817 11.3632 21.2813 9.92962 20.9401 8.51865ZM39.9624 15.4505C39.7968 14.0846 39.137 12.9954 38.1125 12.3949C37.0779 11.7944 35.8231 11.7616 34.5671 12.3057C33.3782 12.817 32.3325 13.7945 31.6055 15.0497C31.0105 16.1051 30.6917 17.261 30.6917 18.3717C30.6917 18.5828 30.7029 18.8052 30.7253 19.0163C30.8908 20.3821 31.5507 21.4601 32.5752 22.0606C33.1254 22.3834 33.7316 22.538 34.3691 22.538C34.9306 22.538 35.5256 22.4161 36.1194 22.1599C37.3083 21.6486 38.3541 20.671 39.081 19.4046C39.7968 18.1494 40.1156 16.7384 39.9624 15.4493V15.4505Z" fill="#FF9900"/>
</svg>
